<?xml version="1.0" encoding="UTF-8" standalone="no"?>
<!-- Uploaded to: SVG Repo, www.svgrepo.com, Generator: SVG Repo Mixer Tools -->

<svg
   width="800px"
   height="800px"
   viewBox="0 0 1024 1024"
   class="icon"
   version="1.1"
   id="svg7"
   sodipodi:docname="sleeping.svg"
   inkscape:version="1.3.2 (091e20e, 2023-11-25)"
   xmlns:inkscape="http://www.inkscape.org/namespaces/inkscape"
   xmlns:sodipodi="http://sodipodi.sourceforge.net/DTD/sodipodi-0.dtd"
   xmlns="http://www.w3.org/2000/svg"
   xmlns:svg="http://www.w3.org/2000/svg">
  <defs
     id="defs7" />
  <sodipodi:namedview
     id="namedview7"
     pagecolor="#ffffff"
     bordercolor="#000000"
     borderopacity="0.25"
     inkscape:showpageshadow="2"
     inkscape:pageopacity="0.0"
     inkscape:pagecheckerboard="0"
     inkscape:deskcolor="#d1d1d1"
     inkscape:zoom="0.17688392"
     inkscape:cx="-1458.5837"
     inkscape:cy="398.56648"
     inkscape:window-width="1728"
     inkscape:window-height="978"
     inkscape:window-x="0"
     inkscape:window-y="38"
     inkscape:window-maximized="1"
     inkscape:current-layer="svg7" />
  <path
     d="M366.31713 744.766507h524.451937l-21.246617-303.632256c-0.003197 0-401.128207-0.147058-503.20532 303.632256z"
     fill="#5FCEFF"
     id="path1"
     style="fill:#a81e1e;fill-opacity:1" />
  <path
     d="M943.262215 744.766507v159.84515h-863.16381v-159.84515h800.088914z"
     fill="#8B87C1"
     id="path2"
     style="fill:#b8b8ba;fill-opacity:1" />
  <path
     d="M240.774749 499.8198c56.968811 0 103.16406 46.163279 103.16406 103.13209s-46.195248 103.16406-103.16406 103.16406-103.132091-46.195248-103.13209-103.16406 46.163279-103.132091 103.13209-103.13209z"
     fill="#FFB578"
     id="path3" />
  <path
     d="M80.098405 986.676157a22.378321 22.378321 0 0 1-22.378321-22.378321v-529.183353a22.378321 22.378321 0 1 1 44.756642 0v529.183353a22.378321 22.378321 0 0 1-22.378321 22.378321zM943.259018 986.676157a22.378321 22.378321 0 0 1-22.378321-22.378321v-305.400143a22.378321 22.378321 0 1 1 44.756642 0v305.400143c0 12.362424-10.015897 22.378321-22.378321 22.378321z"
     fill="#4F46A3"
     id="path4"
     style="fill:#313715;fill-opacity:1" />
  <path
     d="M943.259018 767.148025h-863.16381a22.378321 22.378321 0 1 1 0-44.756642h863.16381a22.378321 22.378321 0 1 1 0 44.756642z"
     fill="#4F46A3"
     id="path5"
     style="fill:#313715;fill-opacity:1" />
  <path
     d="M240.774749 728.494271c-69.206556 0-125.510412-56.316643-125.510411-125.542381 0-69.203359 56.303856-125.510412 125.510411-125.510411 69.222541 0 125.542381 56.303856 125.542381 125.510411 0 69.225738-56.31984 125.542381-125.542381 125.542381z m0-206.29615c-44.526465 0-80.75377 36.224108-80.753769 80.753769 0 44.545646 36.227305 80.785739 80.753769 80.785739 44.545646 0 80.785739-36.240092 80.785739-80.785739 0-44.529662-36.240092-80.75377-80.785739-80.753769zM371.879742 766.7612a22.378321 22.378321 0 0 1-22.378322-22.378321c0-82.607974 58.106909-166.216578 159.419962-229.390578 102.352046-63.819775 234.201917-98.966526 371.265937-98.966526a22.378321 22.378321 0 1 1 0 44.756642c-128.803222 0-252.242041 32.739484-347.586476 92.185895-87.918029 54.817296-138.34278 124.589704-138.34278 191.41137a22.378321 22.378321 0 0 1-22.378321 22.381518z"
     fill="#4F46A3"
     id="path6"
     style="fill:#313715;fill-opacity:1" />
  <path
     d="M880.187319 767.148025a22.378321 22.378321 0 0 1-22.378321-22.378321v-306.362411a22.378321 22.378321 0 1 1 44.756642 0v306.362411a22.378321 22.378321 0 0 1-22.378321 22.378321zM477.665262 429.487934h-167.837408a22.378321 22.378321 0 0 1-12.317667-41.061023l105.552146-69.58379H309.827854a22.378321 22.378321 0 1 1 0-44.756642h167.837408a22.378321 22.378321 0 0 1 12.317667 41.061022l-105.552146 69.583791h93.234479a22.378321 22.378321 0 1 1 0 44.756642zM636.612082 205.704724h-103.004215a22.378321 22.378321 0 0 1-12.31447-41.061023l40.71256-26.841197h-28.39809a22.378321 22.378321 0 1 1 0-44.756642h103.004215a22.378321 22.378321 0 0 1 12.31447 41.061022l-40.712559 26.841198h28.398089a22.378321 22.378321 0 1 1 0 44.756642zM868.38755 136.491774h-87.0197a22.378321 22.378321 0 0 1-12.31447-41.061023l24.715257-16.28822h-12.400787a22.378321 22.378321 0 1 1 0-44.756642h87.0197a22.378321 22.378321 0 0 1 12.31447 41.061022l-24.715257 16.288221h12.400787a22.378321 22.378321 0 1 1 0 44.756642zM943.259018 926.993175h-863.16381a22.378321 22.378321 0 1 1 0-44.756642h863.16381a22.378321 22.378321 0 1 1 0 44.756642z"
     fill="#4F46A3"
     id="path7"
     style="fill:#313715;fill-opacity:1" />
  <path
     id="rect7"
     style="fill:#fddd55;stroke-width:1.28475"
     d="m 762.39761,470.04413 49.75014,-7.29024 v 259.71505 h -49.75014 z"
     sodipodi:nodetypes="ccccc" />
  <path
     id="rect7-8"
     style="fill:#fddd55;stroke-width:1.28"
     d="m 678.55253,487.06542 50.65469,-12.66367 0.90455,247.84617 h -49.75014 z"
     sodipodi:nodetypes="ccccc" />
</svg>
